<?xml version="1.0" encoding="UTF-8"?>
<svg width="712px" height="712px" viewBox="0 0 712 712" version="1.1" xmlns="http://www.w3.org/2000/svg" xmlns:xlink="http://www.w3.org/1999/xlink">
    <title>soylentblue-white</title>
    <defs>
        <path d="M490.183,522.289 L490.183,512.447 L490.257,512.447 C490.602333,513.014333 491.027833,513.489167 491.5335,513.8715 C492.039167,514.253833 492.575667,514.556 493.143,514.778 C493.710333,515 494.283833,515.160333 494.8635,515.259 C495.443167,515.357667 495.967333,515.407 496.436,515.407 C497.891333,515.407 499.167833,515.148 500.2655,514.63 C501.363167,514.112 502.275833,513.402833 503.0035,512.5025 C503.731167,511.602167 504.273833,510.547667 504.6315,509.339 C504.989167,508.130333 505.168,506.847667 505.168,505.491 C505.168,504.134333 504.983,502.851667 504.613,501.643 C504.243,500.434333 503.694167,499.3675 502.9665,498.4425 C502.238833,497.5175 501.326167,496.783667 500.2285,496.241 C499.130833,495.698333 497.842,495.427 496.362,495.427 C495.03,495.427 493.809,495.6675 492.699,496.1485 C491.589,496.6295 490.775,497.400333 490.257,498.461 L490.183,498.461 L490.183,495.871 L487.038,495.871 L487.038,522.289 L490.183,522.289 Z M496.103,512.669 C495.017667,512.669 494.092667,512.4655 493.328,512.0585 C492.563333,511.6515 491.9405,511.115 491.4595,510.449 C490.9785,509.783 490.627,509.012167 490.405,508.1365 C490.183,507.260833 490.072,506.354333 490.072,505.417 C490.072,504.529 490.176833,503.653333 490.3865,502.79 C490.596167,501.926667 490.935333,501.155833 491.404,500.4775 C491.872667,499.799167 492.477,499.250333 493.217,498.831 C493.957,498.411667 494.857333,498.202 495.918,498.202 C496.929333,498.202 497.811167,498.399333 498.5635,498.794 C499.315833,499.188667 499.9325,499.719 500.4135,500.385 C500.8945,501.051 501.252167,501.8095 501.4865,502.6605 C501.720833,503.5115 501.838,504.381 501.838,505.269 C501.838,506.206333 501.739333,507.119 501.542,508.007 C501.344667,508.895 501.024,509.684333 500.58,510.375 C500.136,511.065667 499.550167,511.620667 498.8225,512.04 C498.094833,512.459333 497.188333,512.669 496.103,512.669 Z M511.902,515 L511.902,506.49 C511.902,505.256667 512.025333,504.165167 512.272,503.2155 C512.518667,502.265833 512.913333,501.458 513.456,500.792 C513.998667,500.126 514.714,499.620333 515.602,499.275 C516.49,498.929667 517.563,498.757 518.821,498.757 L518.821,495.427 C517.119,495.377667 515.713,495.723 514.603,496.463 C513.493,497.203 512.555667,498.35 511.791,499.904 L511.717,499.904 L511.717,495.871 L508.757,495.871 L508.757,515 L511.902,515 Z M528.774,515.407 C530.303333,515.407 531.6415,515.154167 532.7885,514.6485 C533.9355,514.142833 534.903667,513.439833 535.693,512.5395 C536.482333,511.639167 537.074333,510.584667 537.469,509.376 C537.863667,508.167333 538.061,506.86 538.061,505.454 C538.061,504.048 537.863667,502.7345 537.469,501.5135 C537.074333,500.2925 536.482333,499.231833 535.693,498.3315 C534.903667,497.431167 533.9355,496.722 532.7885,496.204 C531.6415,495.686 530.303333,495.427 528.774,495.427 C527.269333,495.427 525.937333,495.686 524.778,496.204 C523.618667,496.722 522.644333,497.431167 521.855,498.3315 C521.065667,499.231833 520.473667,500.2925 520.079,501.5135 C519.684333,502.7345 519.487,504.048 519.487,505.454 C519.487,506.86 519.684333,508.167333 520.079,509.376 C520.473667,510.584667 521.065667,511.639167 521.855,512.5395 C522.644333,513.439833 523.618667,514.142833 524.778,514.6485 C525.937333,515.154167 527.269333,515.407 528.774,515.407 Z M528.774,512.669 C527.96,512.669 527.189167,512.508667 526.4615,512.188 C525.733833,511.867333 525.098667,511.404833 524.556,510.8005 C524.013333,510.196167 523.587833,509.443833 523.2795,508.5435 C522.971167,507.643167 522.817,506.613333 522.817,505.454 C522.817,504.294667 522.971167,503.264833 523.2795,502.3645 C523.587833,501.464167 524.013333,500.705667 524.556,500.089 C525.098667,499.472333 525.733833,499.003667 526.4615,498.683 C527.189167,498.362333 527.96,498.202 528.774,498.202 C529.588,498.202 530.358833,498.362333 531.0865,498.683 C531.814167,499.003667 532.449333,499.472333 532.992,500.089 C533.534667,500.705667 533.960167,501.464167 534.2685,502.3645 C534.576833,503.264833 534.731,504.294667 534.731,505.454 C534.731,506.613333 534.576833,507.643167 534.2685,508.5435 C533.960167,509.443833 533.534667,510.196167 532.992,510.8005 C532.449333,511.404833 531.814167,511.867333 531.0865,512.188 C530.358833,512.508667 529.588,512.669 528.774,512.669 Z M545.091,492.43 L545.091,488.582 L541.946,488.582 L541.946,492.43 L545.091,492.43 Z M540.503,522.289 C541.909,522.289 543.025167,521.9005 543.8515,521.1235 C544.677833,520.3465 545.091,519.107 545.091,517.405 L545.091,495.871 L541.946,495.871 L541.946,516.887 C541.946,517.873667 541.822667,518.558167 541.576,518.9405 C541.329333,519.322833 540.860667,519.514 540.17,519.514 L539.504,519.514 C539.405333,519.514 539.312833,519.507833 539.2265,519.4955 C539.140167,519.483167 539.035333,519.464667 538.912,519.44 L538.912,522.141 C539.405333,522.239667 539.935667,522.289 540.503,522.289 Z M558.115,515.407 C560.285667,515.407 562.086333,514.864333 563.517,513.779 C564.947667,512.693667 565.872667,511.078 566.292,508.932 L563.184,508.932 C562.912667,510.19 562.3515,511.127333 561.5005,511.744 C560.6495,512.360667 559.558,512.669 558.226,512.669 C557.19,512.669 556.289667,512.496333 555.525,512.151 C554.760333,511.805667 554.131333,511.343167 553.638,510.7635 C553.144667,510.183833 552.787,509.517833 552.565,508.7655 C552.343,508.013167 552.244333,507.217667 552.269,506.379 L566.588,506.379 C566.637333,505.219667 566.5325,503.998667 566.2735,502.716 C566.0145,501.433333 565.545833,500.249333 564.8675,499.164 C564.189167,498.078667 563.288833,497.1845 562.1665,496.4815 C561.044167,495.7785 559.632,495.427 557.93,495.427 C556.622667,495.427 555.420167,495.673667 554.3225,496.167 C553.224833,496.660333 552.275167,497.351 551.4735,498.239 C550.671833,499.127 550.049,500.175333 549.605,501.384 C549.161,502.592667 548.939,503.924667 548.939,505.38 C548.988333,506.835333 549.204167,508.179667 549.5865,509.413 C549.968833,510.646333 550.542333,511.707 551.307,512.595 C552.071667,513.483 553.015167,514.173667 554.1375,514.667 C555.259833,515.160333 556.585667,515.407 558.115,515.407 Z M563.258,503.604 L552.269,503.604 C552.318333,502.864 552.478667,502.167167 552.75,501.5135 C553.021333,500.859833 553.391333,500.286333 553.86,499.793 C554.328667,499.299667 554.889833,498.911167 555.5435,498.6275 C556.197167,498.343833 556.931,498.202 557.745,498.202 C558.534333,498.202 559.255833,498.343833 559.9095,498.6275 C560.563167,498.911167 561.1305,499.2935 561.6115,499.7745 C562.0925,500.2555 562.474833,500.829 562.7585,501.495 C563.042167,502.161 563.208667,502.864 563.258,503.604 Z M577.762,515.407 C580.204,515.407 582.134167,514.765667 583.5525,513.483 C584.970833,512.200333 585.852667,510.375 586.198,508.007 L582.979,508.007 C582.781667,509.487 582.245167,510.634 581.3695,511.448 C580.493833,512.262 579.279,512.669 577.725,512.669 C576.738333,512.669 575.887333,512.471667 575.172,512.077 C574.456667,511.682333 573.877,511.158167 573.433,510.5045 C572.989,509.850833 572.662167,509.104667 572.4525,508.266 C572.242833,507.427333 572.138,506.564 572.138,505.676 C572.138,504.714 572.236667,503.782833 572.434,502.8825 C572.631333,501.982167 572.958167,501.186667 573.4145,500.496 C573.870833,499.805333 574.481333,499.250333 575.246,498.831 C576.010667,498.411667 576.960333,498.202 578.095,498.202 C579.427,498.202 580.487667,498.535 581.277,499.201 C582.066333,499.867 582.584333,500.804333 582.831,502.013 L586.087,502.013 C585.963667,500.878333 585.667667,499.897833 585.199,499.0715 C584.730333,498.245167 584.132167,497.560667 583.4045,497.018 C582.676833,496.475333 581.838167,496.0745 580.8885,495.8155 C579.938833,495.5565 578.921333,495.427 577.836,495.427 C576.331333,495.427 575.011667,495.692167 573.877,496.2225 C572.742333,496.752833 571.798833,497.4805 571.0465,498.4055 C570.294167,499.3305 569.733,500.415833 569.363,501.6615 C568.993,502.907167 568.808,504.245333 568.808,505.676 C568.808,507.106667 568.999167,508.420167 569.3815,509.6165 C569.763833,510.812833 570.331167,511.842667 571.0835,512.706 C571.835833,513.569333 572.773167,514.235333 573.8955,514.704 C575.017833,515.172667 576.306667,515.407 577.762,515.407 Z M597.89,515 L597.89,512.225 L596.447,512.225 C595.953667,512.225 595.552833,512.2065 595.2445,512.1695 C594.936167,512.1325 594.695667,512.052333 594.523,511.929 C594.350333,511.805667 594.233167,511.633 594.1715,511.411 C594.109833,511.189 594.079,510.893 594.079,510.523 L594.079,498.646 L597.89,498.646 L597.89,495.871 L594.079,495.871 L594.079,490.136 L590.934,490.136 L590.934,495.871 L587.678,495.871 L587.678,498.646 L590.934,498.646 L590.934,510.819 C590.934,511.707 591.020333,512.422333 591.193,512.965 C591.365667,513.507667 591.630833,513.927 591.9885,514.223 C592.346167,514.519 592.814833,514.7225 593.3945,514.8335 C593.974167,514.9445 594.671,515 595.485,515 L597.89,515 Z" id="path-1"></path>
    </defs>
    <g id="soylentblue-white" stroke="none" stroke-width="1" fill="none" fill-rule="evenodd">
        <path d="M249.709704,213.290299 C230.993345,220.288995 220.572407,213.975742 192.076292,233.710136 C187.316449,237.006403 183.958002,241.981629 180.264182,246.437021 C169.167099,259.822413 159.935583,272.624018 153.819415,289.271566 C149.967799,299.755296 148.320044,310.919791 145.570415,321.743904 C144.391216,333.326445 141.671258,344.854877 142.032818,356.491512 C142.406516,368.523505 144.688713,380.508333 147.757531,392.149556 C153.935177,415.583666 162.874141,434.458046 180.108184,451.861322 C198.945251,470.88303 212.152012,474.483792 235.611018,485.265194 C244.977851,487.443277 254.124287,491.038248 263.711406,491.799466 C278.692923,492.988999 304.084255,488.777568 317.821274,482.056756 C344.695372,468.908634 367.525104,457.010106 386.586839,435.089611 C391.779384,429.118323 395.746987,422.186272 400.327117,415.734619 C408.646024,399.352527 413.486562,393.215484 416.019615,374.621431 C419.061908,352.288201 414.691611,325.683925 407.489752,304.48918 C405.024358,297.233189 401.524973,290.369471 398.542471,283.309624 C388.436109,268.035906 383.755615,259.155413 370.59381,246.307703 C355.413587,231.489644 333.541532,216.87555 312.812375,211.409511 C305.340891,209.439368 297.507174,209.265509 289.854518,208.193501 C268.326827,207.132106 247.06921,210.447492 226.844461,217.885696 C221.293728,219.927115 216.061059,222.744491 210.669359,225.173874 L183.092597,247.097984 C188.548809,244.415029 193.820926,241.32121 199.46101,239.049145 C219.450077,230.99678 240.650262,227.209268 262.181549,227.728781 C269.619203,228.615369 277.216114,228.621854 284.494736,230.388518 C312.378436,237.156415 339.285801,258.163801 356.376659,280.618733 C361.021526,286.721387 364.774239,293.452287 368.973141,299.869064 C371.890681,306.78431 375.288016,313.516758 377.725649,320.614817 C387.594081,349.348857 390.580517,381.324928 379.177957,410.073452 C376.546563,416.707918 372.650777,422.769984 369.387075,429.118245 C369.387075,431.692256 365.113165,431.692256 337.778872,464.226523 C336.426367,465.836403 345.707672,461.407381 343.70319,462.047587 C335.131855,464.785299 326.874651,468.644794 318.073703,470.520399 C290.429956,476.411626 289.20625,473.273475 261.82988,467.869796 C237.944465,457.63009 225.86689,455.028696 206.69254,436.113366 C182.489173,412.236935 169.887634,376.530282 169.364794,342.957907 C169.184745,331.40369 172.054069,320.003222 173.398707,308.525886 C176.700734,297.71035 178.889761,286.491439 183.304565,276.079264 C189.904798,260.512815 201.191821,245.293165 212.791175,233.012176 C217.142704,228.404917 233.22351,219.960082 226.887956,220.251488 C222.105309,220.471457 209.237948,228.414782 204.578544,231.902054 C201.957024,233.864098 201.933753,234.415566 207.410489,231.387283 C207.410489,231.387283 221.510227,225.354955 249.709704,213.290299 Z" id="path1030-4-6-5-0-8-9-1-6-4-4-3-3" fill="#d6cead" fill-rule="nonzero"></path>
        <path d="M317.0449,176.981884 C319.907184,207.610311 320.261732,238.310241 319.467307,269.034893 C318.26541,309.50583 315.125946,349.886785 311.236011,390.178229 C309.637854,399.541755 309.924565,409.13387 308.704615,418.517201 C308.170887,423.469453 307.364016,428.390281 306.371798,433.270401 C305.747022,435.927109 305.686585,434.772406 307.983746,438 C322.469415,437.64053 336.933556,435.781578 351.382783,434.590294 C388.594949,431.522978 425.622777,426.601173 462.749165,422.673087 C481.366181,421.281882 500.141521,419.99117 518.805966,421.265116 C524.009029,421.802056 529.188097,422.600754 534.279256,423.807279 C575.095992,433.784934 570.221576,409.580454 569.388579,393.280164 C568.370459,367.983916 567.731219,342.682303 566.309551,317.401411 C564.100074,287.396274 563.577896,257.321235 563.403313,227.248634 C563.329308,213.787856 563.641808,200.330786 563.883556,186.873544 C563.79049,179.534263 564.007569,172.199722 564.100859,164.861919 C564.1715,159.673445 565.283358,156.593299 560.674572,153.210384 C559.61048,153.145116 558.545939,152.94441 557.482072,153.014736 C554.502165,153.211809 551.597945,154.042255 548.654031,154.545405 C541.503758,155.767541 534.371874,156.829264 527.172713,157.727334 C509.473912,159.699664 491.650985,159.755524 473.880534,160.532622 C455.389662,161.218984 437.069449,163.964814 418.701245,166.0179 C408.602349,166.969967 398.540118,168.365165 388.518254,169.929175 C382.598358,171.155584 376.652561,172.169376 370.638142,172.779692 C368.446606,172.976372 366.248341,173.038804 364.051086,173.13074 L331.451407,195.908606 C333.894446,196.774809 336.264602,196.560171 338.843203,196.311446 C345.068983,195.846872 351.251033,194.915549 357.329029,193.475599 C367.48298,191.302688 377.915007,190.241666 388.183777,188.748524 C406.610175,186.444297 424.975688,183.368393 443.571063,182.775694 C461.284777,181.882402 479.05691,182.1009 496.730371,180.363033 C503.733757,179.695337 510.620081,178.757556 517.582989,177.805399 C519.783271,177.504514 523.531253,177.286717 525.843439,176.64528 C526.533585,176.453871 527.151409,176.061553 527.805338,175.769684 C529.877794,172.949491 528.544259,182.120117 528.95902,182.7641 C529.033024,190.041186 529.219044,197.315416 529.121381,204.593411 C529.391833,217.780952 529.938007,230.960062 530.451328,244.14016 C531.711307,274.036585 533.405669,303.914141 534.49129,333.818635 C535.637123,359.49544 536.342899,398.714172 534.845053,398.714172 C513.784705,398.714172 510.804195,400.003739 491.231963,401.46852 C454.484791,406.101655 417.739862,411.035358 380.722125,412.961642 C367.37971,413.687995 353.957685,415.089708 340.613588,414.636844 C342.734035,418.847435 341.865718,417.882695 342.182928,415.697277 C342.667431,410.804474 343.248365,405.921315 343.903864,401.048554 C344.686515,391.911887 343.999172,382.711185 344.316718,373.554269 C344.896979,333.613139 346.705936,293.702655 349.510026,253.855466 C350.170795,238.539359 350.918575,223.918768 351.136215,208.603732 C351.371346,192.056861 362.229571,189.62515 364.051086,173.13074 L317.0449,176.981884 Z" id="path1032-9-1-1-7-1-1-5-7-4-4-0-8" fill="#d6cead" fill-rule="nonzero"></path>
        <path d="M121.189626,567.304264 C121.386883,570.962517 122.216258,573.932994 123.677752,576.215694 C126.460866,580.488901 131.367181,582.625055 138.3958,582.625055 C141.544736,582.625055 144.412132,582.157546 146.999783,581.220731 C152.00383,579.40554 154.506301,576.157255 154.506301,571.474979 C154.506301,567.962372 153.446494,565.460303 151.325087,563.967872 C149.175884,562.50511 145.811759,561.232049 141.231815,560.148688 L132.791016,558.173465 C127.277689,556.886018 123.37559,555.466411 121.085618,553.914643 C117.127033,551.222873 115.148188,547.198704 115.148188,541.843036 C115.148188,536.047729 117.093858,531.292629 120.9843,527.575937 C124.875639,523.859245 130.38538,522 137.515317,522 C144.075899,522 149.649301,523.631784 154.236418,526.895353 C158.823535,530.158921 161.117094,535.375236 161.117094,542.545197 L152.93004,542.545197 C152.510421,539.091928 151.614696,536.443313 150.243761,534.599352 C147.697355,531.234191 143.373844,529.55116 137.274126,529.55116 C132.348982,529.55116 128.809119,530.633622 126.65364,532.799445 C124.499057,534.965267 123.422215,537.48262 123.422215,540.350605 C123.422215,543.510782 124.694521,545.823151 127.24003,547.285913 C128.908644,548.222728 132.684318,549.393297 138.566158,550.798519 L147.304634,552.86185 C151.518757,553.856204 154.770805,555.217373 157.060777,556.944457 C161.020259,559.958987 163,564.333787 163,570.069756 C163,577.210947 160.47332,582.317578 155.420855,585.390547 C150.368391,588.463516 144.498208,590 137.809409,590 C130.008799,590 123.903701,587.951953 119.492321,583.854062 C115.078252,579.786739 112.914703,574.270139 113.002572,567.304264 L121.189626,567.304264 Z" id="Fill-1" fill="#d6cead"></path>
        <path d="M206.12144,579.691085 C208.527929,575.801101 209.731623,571.328388 209.731623,566.272947 C209.731623,560.927951 208.343644,556.625351 205.568586,553.365148 C202.792629,550.104945 198.998161,548.474391 194.184285,548.474391 C189.51424,548.474391 185.704491,550.089562 182.754137,553.319 C179.804683,556.548438 178.329506,561.309801 178.329506,567.603993 C178.329506,572.639527 179.594328,576.885121 182.124872,580.340773 C184.654517,583.798236 188.756425,585.525609 194.430597,585.525609 C199.817105,585.525609 203.714052,583.58107 206.12144,579.691085 M211.51424,550.732011 C214.504147,554.752295 216,559.897317 216,566.165269 C216,572.948989 214.289298,578.588063 210.868794,583.082493 C206.853185,588.361434 201.128672,591 193.692559,591 C186.74907,591 181.289748,588.690802 177.316389,584.072407 C173.77183,579.618697 172,573.989575 172,567.185948 C172,561.041963 173.515629,555.783833 176.547787,551.412464 C180.439341,545.804155 186.195317,543 193.815715,543 C201.784007,543 207.682916,545.57794 211.51424,550.732011" id="Fill-4" fill="#d6cead"></path>
        <polygon id="Fill-6" fill="#d6cead" points="219 544 226.081408 544 238.969196 565.627066 251.856983 544 259 544 242.02105 570.865565 242.02105 589 235.9477 589 235.9477 570.865565"></polygon>
        <polygon id="Fill-8" fill="#d6cead" points="264 544 270.165854 544 270.165854 583.639614 293 583.639614 293 589 264 589"></polygon>
        <polygon id="Fill-10" fill="#d6cead" points="300 544 332.542709 544 332.542709 549.513643 305.922459 549.513643 305.922459 563.175861 330.527769 563.175861 330.527769 568.383888 305.922459 568.383888 305.922459 583.639614 333 583.639614 333 589 300 589"></polygon>
        <polygon id="Fill-12" fill="#d6cead" points="341 544 348.294492 544 371.088302 580.358494 371.088302 544 377 544 377 589 370.043241 589 346.911698 552.684525 346.911698 589 341 589"></polygon>
        <polygon id="Fill-14" fill="#d6cead" points="420 544 420 549.360386 404.622114 549.360386 404.622114 589 398.377886 589 398.377886 549.360386 383 549.360386 383 544"></polygon>
        <path d="M454.546529,581.593456 C459.948584,581.593456 463.800266,580.054329 466.102472,576.975184 C467.548649,575.030085 468.271738,572.67723 468.271738,569.917509 C468.271738,565.270685 466.161756,562.104992 461.939997,560.42043 C459.696177,559.520152 456.731065,559.069567 453.041068,559.069567 L435.552206,559.069567 L435.552206,581.593456 L454.546529,581.593456 Z M451.596687,552.055612 C455.319021,552.055612 458.21407,551.547031 460.282732,550.530762 C463.532588,548.933639 465.157517,546.057926 465.157517,541.904516 C465.157517,537.721661 463.430188,534.904836 459.972837,533.452258 C458.022744,532.639421 455.126796,532.232556 451.285894,532.232556 L435.552206,532.232556 L435.552206,552.055612 L451.596687,552.055612 Z M427,525 L454.858221,525 C462.451099,525 467.852256,527.236864 471.060793,531.709699 C472.943518,534.352535 473.885779,537.402236 473.885779,540.858802 C473.885779,544.89622 472.730634,548.20735 470.421242,550.79219 C469.222082,552.157328 467.496551,553.405582 465.245545,554.538736 C468.549296,555.787882 471.020372,557.195848 472.657876,558.764419 C475.552925,561.552691 477,565.401846 477,570.310098 C477,574.434064 475.690356,578.166334 473.072866,581.506016 C469.160103,586.501708 462.937051,589 454.405504,589 L427,589 L427,525 Z" id="Fill-16" fill="#d6cead"></path>
        <polygon id="Fill-18" fill="#d6cead" points="485 544 491.165854 544 491.165854 583.639614 514 583.639614 514 589 485 589"></polygon>
        <path d="M527.232392,544 L527.232392,571.697456 C527.232392,574.951361 527.856538,577.656403 529.107552,579.811691 C530.961848,583.065596 534.088023,584.692548 538.484263,584.692548 C543.755941,584.692548 547.339339,582.933512 549.235365,579.41544 C550.256861,577.503793 550.766701,574.930834 550.766701,571.697456 L550.766701,544 L557,544 L557,569.165551 C557,574.677376 556.242497,578.917448 554.728398,581.885765 C551.947862,587.29585 546.700678,590 538.984124,590 C531.26757,590 526.030366,587.29585 523.271602,581.885765 C521.756596,578.917448 521,574.677376 521,569.165551 L521,544 L527.232392,544 Z" id="Fill-20" fill="#d6cead"></path>
        <polygon id="Fill-22" fill="#d6cead" points="566 544 598.542709 544 598.542709 549.513643 571.922459 549.513643 571.922459 563.175861 596.527769 563.175861 596.527769 568.383888 571.922459 568.383888 571.922459 583.639614 599 583.639614 599 589 566 589"></polygon>
        <g id="project" fill-rule="nonzero" fill="#d6cead">
            <use xlink:href="#path-1"></use>
            <use xlink:href="#path-1"></use>
        </g>
    </g>
</svg>